<?xml version="1.0" ?><svg enable-background="new 0 0 515.91 728.5" height="512" id="Layer_1" version="1.1" viewBox="0 0 512.00003 512" width="512" xml:space="preserve" xmlns="http://www.w3.org/2000/svg" xmlns:cc="http://creativecommons.org/ns#" xmlns:dc="http://purl.org/dc/elements/1.1/" xmlns:inkscape="http://www.inkscape.org/namespaces/inkscape" xmlns:rdf="http://www.w3.org/1999/02/22-rdf-syntax-ns#" xmlns:sodipodi="http://sodipodi.sourceforge.net/DTD/sodipodi-0.dtd" xmlns:svg="http://www.w3.org/2000/svg"><defs id="defs7"/><path d="m 256.01552,16.001893 c -101.75001,0 -184.281015,82.468005 -184.281015,184.188017 1.490999,123.106 113.469005,190.80001 180.594015,293.25001 2.405,3.486 5.099,3.335 7.344,0 66.881,-102.608 179.10101,-170.14401 180.59301,-293.25001 0,-101.720012 -82.501,-184.188017 -184.25001,-184.188017 z m -41.75001,58.938005 a 4.9262956,4.7527575 0 0 1 4.907,4.781 l 0,240.063012 a 4.9262956,4.7527575 0 0 1 -4.907,4.75 l -11.124,0 a 4.9262956,4.7527575 0 0 1 -4.907,-4.75 l 0,-103.063 -17.531,0 a 4.9262956,4.7527575 0 0 1 -4.938,-4.75 c 0,-36.83701 3.761,-70.17801 9.969,-94.65601 3.105,-12.239 6.785,-22.251002 11.188,-29.594002 4.403,-7.343 9.993,-12.781 17.343,-12.781 z m 76.84401,0 c 1.687,0 2.73,1.646 2.75,2.5 l 1.406,64.875002 c 0.03,1.171 1.031,2.581 2.626,2.531 1.268,-0.04 2.585,-0.837 2.624,-2.531 l 1.469,-64.875002 c 0.02,-0.854 1.062,-2.5 2.75,-2.5 1.688,0 2.761,1.645 2.781,2.5 0.433,19.219 0.945,42.679002 1.438,64.844002 0.03,1.384 1.017,2.643 2.594,2.593 1.241,-0.04 2.553,-0.916 2.594,-2.593 l 1.468,-64.844002 c 0.02,-0.854 1.064,-2.5 2.75,-2.5 1.688,0 2.76,1.646 2.782,2.5 0.434,19.395 0.962,42.309002 1.437,64.875002 0.03,1.332 1.016,2.612 2.594,2.562 1.263,-0.04 2.554,-0.875 2.59301,-2.562 l 1.469,-64.875002 c 0.02,-0.854 1.062,-2.469 2.75,-2.469 1.687,0 2.771,1.615 2.781,2.469 0.03,1.24 1.469,79.429002 1.469,84.000002 0,5.374 -4.313,9.687 -9.68701,9.687 l -5.188,0 0,143.59401 c 0,5.431 -4.383,9.813 -9.812,9.813 -5.431,0 -9.813,-4.382 -9.813,-9.813 l 0,-143.59401 -5.187,0 c -5.375,0 -9.688,-4.313 -9.688,-9.687 0,-4.572 1.48,-82.760002 1.5,-84.000002 0.02,-0.854 1.062,-2.469 2.75,-2.469 l 0,-0.03 z" id="path15659" style="font-size:medium;font-style:normal;font-variant:normal;font-weight:normal;font-stretch:normal;text-indent:0;text-align:start;text-decoration:none;line-height:normal;letter-spacing:normal;word-spacing:normal;text-transform:none;direction:ltr;block-progression:tb;writing-mode:lr-tb;text-anchor:start;baseline-shift:baseline;color:#000000;fill:#4d4d4d;fill-opacity:1;fill-rule:nonzero;stroke:none;stroke-width:8;marker:none;visibility:visible;display:inline;overflow:visible;enable-background:accumulate;font-family:Sans;-inkscape-font-specification:Sans"/></svg>