<?xml version="1.0" ?><svg enable-background="new 0 0 515.91 728.5" height="512" id="Layer_1" version="1.1" viewBox="0 0 512.00003 512" width="512" xml:space="preserve" xmlns="http://www.w3.org/2000/svg" xmlns:cc="http://creativecommons.org/ns#" xmlns:dc="http://purl.org/dc/elements/1.1/" xmlns:inkscape="http://www.inkscape.org/namespaces/inkscape" xmlns:rdf="http://www.w3.org/1999/02/22-rdf-syntax-ns#" xmlns:sodipodi="http://sodipodi.sourceforge.net/DTD/sodipodi-0.dtd" xmlns:svg="http://www.w3.org/2000/svg"><defs id="defs7"/><path d="m 256.03301,5.99899 c -94.22899,0 -170.657005,76.4 -170.657005,170.627 0,36.81001 11.677,70.90801 31.499995,98.78201 l 0.03,0.09 c 45.73501,71.454 122.46401,133.78601 131.65702,224.90901 0.903,3.216 4.142,5.594 7.46899,5.594 3.328,0 6.534,-2.378 7.43701,-5.594 9.19299,-91.122 85.89501,-153.45601 131.62601,-224.90901 l 0.06,-0.09 c 19.822,-27.874 31.469,-61.972 31.469,-98.78201 0,-94.227 -76.362,-170.627 -170.59501,-170.627 z m -24.906,54.063 49.75001,0 c 6.889,0 12.437,5.52 12.437,12.408 l 0,66.874 66.84501,0 c 6.89,0 12.40599,5.52 12.40599,12.407 l 0,49.75101 c 0,6.887 -5.51599,12.437 -12.40599,12.437 l -66.84501,0 0,66.813 c 0,6.889 -5.55001,12.469 -12.437,12.469 l -49.75001,0 c -6.887,0 -12.40699,-5.58 -12.40699,-12.469 l 0,-66.813 -66.813,0 c -6.889,0 -12.469,-5.55 -12.469,-12.437 l 0,-49.75101 c 0,-6.887 5.58,-12.407 12.469,-12.407 l 66.813,0 0,-66.874 c 0,-6.888 5.52199,-12.408 12.40699,-12.408 z" id="path10765" style="font-size:medium;font-style:normal;font-variant:normal;font-weight:normal;font-stretch:normal;text-indent:0;text-align:start;text-decoration:none;line-height:normal;letter-spacing:normal;word-spacing:normal;text-transform:none;direction:ltr;block-progression:tb;writing-mode:lr-tb;text-anchor:start;baseline-shift:baseline;color:#000000;fill:#f65314;fill-opacity:1;fill-rule:nonzero;stroke:none;stroke-width:16;marker:none;visibility:visible;display:inline;overflow:visible;enable-background:accumulate;font-family:Sans;-inkscape-font-specification:Sans"/></svg>